<?xml version="1.0" encoding="UTF-8"?>
<svg width="600px" height="400px" viewBox="0 0 600 400" version="1.1" xmlns="http://www.w3.org/2000/svg" xmlns:xlink="http://www.w3.org/1999/xlink">
    <title>Trading Platform Project</title>
    <defs>
        <linearGradient x1="0%" y1="0%" x2="100%" y2="100%" id="tradingGradient">
            <stop stop-color="#2563eb" offset="0%"></stop>
            <stop stop-color="#0f172a" offset="100%"></stop>
        </linearGradient>
    </defs>
    <g stroke="none" stroke-width="1" fill="none" fill-rule="evenodd">
        <rect fill="url(#tradingGradient)" x="0" y="0" width="600" height="400" rx="10"></rect>
        <!-- Dashboard elements -->
        <rect fill="#FFFFFF" opacity="0.1" x="30" y="30" width="540" height="340" rx="5"></rect>
        <!-- Chart -->
        <polyline stroke="#10b981" stroke-width="3" points="50,300 100,250 150,270 200,180 250,220 300,150 350,170 400,120 450,140 500,80 550,100"></polyline>
        <!-- Price bars -->
        <rect fill="#ef4444" x="100" y="200" width="10" height="50"></rect>
        <rect fill="#10b981" x="150" y="220" width="10" height="50"></rect>
        <rect fill="#ef4444" x="200" y="130" width="10" height="50"></rect>
        <rect fill="#10b981" x="250" y="170" width="10" height="50"></rect>
        <rect fill="#10b981" x="300" y="100" width="10" height="50"></rect>
        <rect fill="#ef4444" x="350" y="120" width="10" height="50"></rect>
        <rect fill="#10b981" x="400" y="70" width="10" height="50"></rect>
        <rect fill="#ef4444" x="450" y="90" width="10" height="50"></rect>
        <rect fill="#10b981" x="500" y="30" width="10" height="50"></rect>
        <!-- Data panels -->
        <rect fill="#FFFFFF" opacity="0.2" x="50" y="320" width="500" height="40" rx="5"></rect>
        <rect fill="#FFFFFF" opacity="0.2" x="50" y="50" width="500" height="30" rx="5"></rect>
    </g>
</svg>
