<?xml version="1.0" encoding="UTF-8"?>
<svg width="800px" height="800px" viewBox="0 0 24 24" version="1.1" xmlns="http://www.w3.org/2000/svg" xmlns:xlink="http://www.w3.org/1999/xlink">
    <g stroke="none" stroke-width="1" fill="none" fill-rule="evenodd">
        <path d="M9,22 L15,22 C15.6,22 16,21.6 16,21 C16,20.4 15.6,20 15,20 L9,20 C8.4,20 8,20.4 8,21 C8,21.6 8.4,22 9,22 Z" fill="#2563eb"></path>
        <path d="M12,18 C12.6,18 13,17.6 13,17 L13,15 C13,14.4 12.6,14 12,14 C11.4,14 11,14.4 11,15 L11,17 C11,17.6 11.4,18 12,18 Z" fill="#2563eb"></path>
        <path d="M19,4 L5,4 C3.3,4 2,5.3 2,7 L2,13 C2,14.7 3.3,16 5,16 L19,16 C20.7,16 22,14.7 22,13 L22,7 C22,5.3 20.7,4 19,4 Z M5,6 L19,6 C19.6,6 20,6.4 20,7 L20,13 C20,13.6 19.6,14 19,14 L5,14 C4.4,14 4,13.6 4,13 L4,7 C4,6.4 4.4,6 5,6 Z" fill="#2563eb"></path>
        <path d="M6,12 C6.6,12 7,11.6 7,11 C7,10.4 6.6,10 6,10 C5.4,10 5,10.4 5,11 C5,11.6 5.4,12 6,12 Z" fill="#2563eb"></path>
        <path d="M9,12 C9.6,12 10,11.6 10,11 C10,10.4 9.6,10 9,10 C8.4,10 8,10.4 8,11 C8,11.6 8.4,12 9,12 Z" fill="#2563eb"></path>
        <path d="M12,12 C12.6,12 13,11.6 13,11 C13,10.4 12.6,10 12,10 C11.4,10 11,10.4 11,11 C11,11.6 11.4,12 12,12 Z" fill="#2563eb"></path>
        <path d="M15,12 C15.6,12 16,11.6 16,11 C16,10.4 15.6,10 15,10 C14.4,10 14,10.4 14,11 C14,11.6 14.4,12 15,12 Z" fill="#2563eb"></path>
        <path d="M18,12 C18.6,12 19,11.6 19,11 C19,10.4 18.6,10 18,10 C17.4,10 17,10.4 17,11 C17,11.6 17.4,12 18,12 Z" fill="#2563eb"></path>
    </g>
</svg>
