<?xml version="1.0" encoding="UTF-8"?>
<svg width="150px" height="150px" viewBox="0 0 150 150" version="1.1" xmlns="http://www.w3.org/2000/svg">
    <title>Amazon Logo</title>
    <g stroke="none" stroke-width="1" fill="none" fill-rule="evenodd" transform="translate(25, 45)">
        <path d="M65.3,36.8 C59.1,41.5 50,43.9 42.1,43.9 C30.8,43.9 20.7,39.9 13.1,33.1 C12.6,32.6 13,31.9 13.6,32.3 C21.8,37.2 32,40.1 42.6,40.1 C49.7,40.1 57.5,38.5 64.6,35.1 C65.7,34.6 66.6,35.8 65.3,36.8" fill="#FF9900"></path>
        <path d="M68.1,33.6 C67.3,32.5 62.9,33.1 60.9,33.4 C60.3,33.5 60.2,33 60.7,32.6 C64.4,30 70.4,30.8 71.1,31.7 C71.8,32.6 70.9,39 67.4,41.9 C66.9,42.3 66.4,42.1 66.6,41.5 C67.4,39.5 68.9,34.6 68.1,33.6" fill="#FF9900"></path>
        <path d="M61.1,10.1 L61.1,5.8 C61.1,5.3 61.5,5 61.9,5 L72.9,5 C73.4,5 73.8,5.3 73.8,5.8 L73.8,9.5 C73.8,10 73.4,10.5 72.8,11.3 L67.1,19.8 C69.3,19.7 71.7,20.1 73.6,21.3 C74.2,21.7 74.3,22.1 74.3,22.6 L74.3,27 C74.3,27.5 73.8,28.1 73.2,27.8 C69.5,25.9 64.6,25.7 60.6,27.8 C60.1,28.1 59.6,27.6 59.6,27.1 L59.6,22.9 C59.6,22.3 59.6,21.3 60.2,20.4 L67,10.9 L61.9,10.9 C61.5,10.9 61.1,10.6 61.1,10.1" fill="#232F3E"></path>
        <path d="M22.1,27.8 L18.8,27.8 C18.4,27.8 18.1,27.5 18.1,27.1 L18.1,5.9 C18.1,5.4 18.5,5.1 18.9,5.1 L22,5.1 C22.4,5.1 22.8,5.4 22.8,5.8 L22.8,9.7 L22.9,9.7 C23.8,6.9 25.6,5.2 28.1,5.2 C30.6,5.2 32.1,6.9 33.1,9.7 C34,6.9 36.2,5.2 38.6,5.2 C40.3,5.2 42.1,6 43.1,7.7 C44.3,9.5 44,12.1 44,14.3 L44,27 C44,27.5 43.6,27.8 43.1,27.8 L39.8,27.8 C39.4,27.8 39,27.5 39,27 L39,16.5 C39,15.6 39.1,13.1 38.9,12.2 C38.6,10.8 37.7,10.3 36.5,10.3 C35.5,10.3 34.5,11 34.1,12.1 C33.7,13.2 33.7,15 33.7,16.5 L33.7,27 C33.7,27.5 33.3,27.8 32.8,27.8 L29.5,27.8 C29.1,27.8 28.7,27.5 28.7,27 L28.7,16.5 C28.7,14.1 29.1,10.2 26.3,10.2 C23.5,10.2 23.6,13.9 23.6,16.5 L23.6,27 C23.6,27.5 23.2,27.8 22.7,27.8 L22.1,27.8 Z" fill="#232F3E"></path>
        <path d="M87.1,5.2 C92.6,5.2 95.6,10.2 95.6,16.7 C95.6,23 92.2,27.8 87.1,27.8 C81.7,27.8 78.8,22.8 78.8,16.4 C78.8,10 81.7,5.2 87.1,5.2 M87.1,9.9 C84.4,9.9 84.2,13.6 84.2,16.1 C84.2,18.6 84.1,23.1 87.1,23.1 C90,23.1 90.2,19.6 90.2,17 C90.2,15.4 90.1,13.5 89.6,12 C89.2,10.7 88.3,9.9 87.1,9.9" fill="#232F3E"></path>
        <path d="M102.9,27.8 L99.6,27.8 C99.2,27.8 98.8,27.5 98.8,27 L98.8,5.8 C98.9,5.4 99.3,5.1 99.7,5.1 L102.8,5.1 C103.1,5.1 103.4,5.3 103.5,5.7 L103.5,10 L103.6,10 C104.6,6.9 106.2,5.2 109.1,5.2 C110.9,5.2 112.7,5.9 113.8,7.8 C114.8,9.5 114.8,12.4 114.8,14.5 L114.8,27.1 C114.7,27.5 114.3,27.8 113.9,27.8 L110.6,27.8 C110.2,27.8 109.9,27.5 109.8,27.1 L109.8,16.2 C109.8,13.8 110.1,10.2 107.4,10.2 C106.4,10.2 105.5,10.9 105,11.9 C104.4,13.2 104.3,14.5 104.3,16.2 L104.3,27 C104.3,27.5 103.9,27.8 103.4,27.8 L102.9,27.8 Z" fill="#232F3E"></path>
        <path d="M53.9,27.8 C53.5,27.8 53.2,27.5 53.1,27.1 L53.1,5.9 C53.2,5.4 53.6,5.1 54,5.1 L57.1,5.1 C57.6,5.1 57.9,5.4 58,5.8 L58,9.2 L58.1,9.2 C59.2,6.6 60.8,5.2 63.6,5.2 C65.4,5.2 67.2,5.9 68.3,7.8 C69.3,9.5 69.3,12.4 69.3,14.5 L69.3,27 C69.2,27.5 68.8,27.8 68.4,27.8 L65.1,27.8 C64.7,27.8 64.4,27.5 64.3,27.1 L64.3,16.2 C64.3,13.8 64.6,10.1 61.9,10.1 C60.9,10.1 60,10.8 59.5,11.8 C58.9,13.1 58.8,14.4 58.8,16.1 L58.8,27 C58.8,27.5 58.4,27.8 57.9,27.8 L53.9,27.8 Z" fill="#232F3E"></path>
        <path d="M0,43.2 C0,42.9 0.2,42.7 0.5,42.7 L4.9,42.7 C5.2,42.7 5.4,42.9 5.4,43.2 L5.4,47.1 C5.4,47.4 5.2,47.6 4.9,47.6 L0.5,47.6 C0.2,47.6 0,47.4 0,47.1 L0,43.2 Z" fill="#232F3E"></path>
        <path d="M6.9,33.1 C7.2,33 7.5,33.2 7.5,33.5 L7.5,37.3 C7.5,37.6 7.3,37.8 7,37.8 L2.9,37.8 C2.6,37.8 2.4,37.6 2.4,37.3 L2.4,33.6 C2.4,33.3 2.7,33.1 3,33.2 C4.3,33.9 6.1,34.2 6.9,33.1" fill="#232F3E"></path>
    </g>
</svg>
