<?xml version="1.0" encoding="UTF-8"?>
<svg width="1024px" height="1024px" viewBox="0 0 1024 1024" version="1.1" xmlns="http://www.w3.org/2000/svg" xmlns:xlink="http://www.w3.org/1999/xlink">
    <g id="binance-logo" stroke="none" stroke-width="1" fill="none" fill-rule="evenodd">
        <path d="M512,0 C794.769792,0 1024,229.230208 1024,512 C1024,794.769792 794.769792,1024 512,1024 C229.230208,1024 0,794.769792 0,512 C0,229.230208 229.230208,0 512,0 Z" id="background" fill="#F0B90B"></path>
        <path d="M404.12,438.88 L512,331 L619.88,438.88 L684.44,374.32 L512,201.88 L339.56,374.32 L404.12,438.88 Z M296.68,481.32 L232.12,416.76 L167.56,481.32 L232.12,545.88 L296.68,481.32 Z M404.12,523.76 L512,631.64 L619.88,523.76 L684.44,588.32 L512,760.76 L339.56,588.32 L404.12,523.76 Z M727.32,481.32 L791.88,416.76 L856.44,481.32 L791.88,545.88 L727.32,481.32 Z M512,438.88 L619.88,331 L684.44,395.56 L512,568 L339.56,395.56 L404.12,331 L512,438.88 Z" id="binance-icon" fill="#FFFFFF" fill-rule="nonzero"></path>
    </g>
</svg>
