<?xml version="1.0" encoding="UTF-8"?>
<svg width="800px" height="800px" viewBox="0 0 24 24" version="1.1" xmlns="http://www.w3.org/2000/svg" xmlns:xlink="http://www.w3.org/1999/xlink">
    <g stroke="none" stroke-width="1" fill="none" fill-rule="evenodd">
        <path d="M19,14 C18.4,14 18,14.4 18,15 L18,17 C18,17.6 17.6,18 17,18 L7,18 C6.4,18 6,17.6 6,17 L6,15 C6,14.4 5.6,14 5,14 C4.4,14 4,14.4 4,15 L4,17 C4,18.7 5.3,20 7,20 L17,20 C18.7,20 20,18.7 20,17 L20,15 C20,14.4 19.6,14 19,14 Z" fill="#2563eb"></path>
        <path d="M15,10 L13,10 L13,4 C13,3.4 12.6,3 12,3 C11.4,3 11,3.4 11,4 L11,10 L9,10 C8.4,10 8,10.4 8,11 C8,11.3 8.1,11.5 8.3,11.7 L11.3,14.7 C11.5,14.9 11.7,15 12,15 C12.3,15 12.5,14.9 12.7,14.7 L15.7,11.7 C15.9,11.5 16,11.3 16,11 C16,10.4 15.6,10 15,10 Z" fill="#2563eb"></path>
        <path d="M17,6 L15,6 C14.4,6 14,6.4 14,7 C14,7.6 14.4,8 15,8 L17,8 C17.6,8 18,8.4 18,9 L18,11 C18,11.6 18.4,12 19,12 C19.6,12 20,11.6 20,11 L20,9 C20,7.3 18.7,6 17,6 Z" fill="#2563eb"></path>
        <path d="M9,8 C9.6,8 10,7.6 10,7 C10,6.4 9.6,6 9,6 L7,6 C5.3,6 4,7.3 4,9 L4,11 C4,11.6 4.4,12 5,12 C5.6,12 6,11.6 6,11 L6,9 C6,8.4 6.4,8 7,8 L9,8 Z" fill="#2563eb"></path>
    </g>
</svg>
