<?xml version="1.0" encoding="UTF-8"?>
<svg width="800px" height="800px" viewBox="0 0 24 24" version="1.1" xmlns="http://www.w3.org/2000/svg" xmlns:xlink="http://www.w3.org/1999/xlink">
    <g stroke="none" stroke-width="1" fill="none" fill-rule="evenodd">
        <path d="M19.3,9.7 C18.8,6.4 16,4 12.7,4 C10.1,4 7.8,5.4 6.7,7.7 C3.9,8.1 2,10.5 2,13.2 C2,16.1 4.4,18.5 7.3,18.5 L19,18.5 C21.2,18.5 23,16.7 23,14.5 C23,12.4 21.4,10.6 19.3,10.3 L19.3,9.7 Z M19,16.5 L7.3,16.5 C5.5,16.5 4,15 4,13.2 C4,11.4 5.5,9.9 7.3,9.9 C7.4,9.9 7.6,9.9 7.7,9.9 C8.2,9.9 8.6,9.6 8.7,9.1 C9.2,7.4 10.8,6 12.6,6 C14.9,6 16.8,7.9 16.8,10.2 C16.8,10.3 16.8,10.5 16.8,10.6 C16.8,11.1 17.1,11.5 17.6,11.6 C18.9,11.8 20,13 20,14.4 C20,15.5 19.1,16.4 18,16.4 L19,16.5 Z" fill="#2563eb"></path>
    </g>
</svg>
