<?xml version="1.0" encoding="UTF-8"?>
<svg width="800px" height="800px" viewBox="0 0 24 24" version="1.1" xmlns="http://www.w3.org/2000/svg" xmlns:xlink="http://www.w3.org/1999/xlink">
    <g stroke="none" stroke-width="1" fill="none" fill-rule="evenodd">
        <path d="M8.6,15.6 L4.4,11.4 C4.2,11.2 4.1,10.9 4.1,10.7 C4.1,10.5 4.2,10.2 4.4,10 L8.6,5.8 C9,5.4 9.6,5.4 10,5.8 C10.4,6.2 10.4,6.8 10,7.2 L6.8,10.7 L10,14.2 C10.4,14.6 10.4,15.2 10,15.6 C9.8,15.8 9.5,15.9 9.3,15.9 C9.1,15.9 8.8,15.8 8.6,15.6 Z" fill="#2563eb"></path>
        <path d="M14,18 C13.9,18 13.8,18 13.7,17.9 C13.2,17.8 12.9,17.3 13,16.8 L15,6.8 C15.1,6.3 15.6,6 16.1,6.1 C16.6,6.2 16.9,6.7 16.8,7.2 L14.8,17.2 C14.7,17.7 14.4,18 14,18 Z" fill="#2563eb"></path>
        <path d="M19.4,15.6 C19.2,15.8 18.9,15.9 18.7,15.9 C18.5,15.9 18.2,15.8 18,15.6 C17.6,15.2 17.6,14.6 18,14.2 L21.2,10.7 L18,7.2 C17.6,6.8 17.6,6.2 18,5.8 C18.4,5.4 19,5.4 19.4,5.8 L23.6,10 C23.8,10.2 23.9,10.5 23.9,10.7 C23.9,10.9 23.8,11.2 23.6,11.4 L19.4,15.6 Z" fill="#2563eb"></path>
    </g>
</svg>
