<?xml version="1.0" encoding="UTF-8"?>
<svg width="1024px" height="1024px" viewBox="0 0 1024 1024" version="1.1" xmlns="http://www.w3.org/2000/svg" xmlns:xlink="http://www.w3.org/1999/xlink">
    <g id="slack-logo" stroke="none" stroke-width="1" fill="none" fill-rule="evenodd">
        <path d="M512,0 C794.769792,0 1024,229.230208 1024,512 C1024,794.769792 794.769792,1024 512,1024 C229.230208,1024 0,794.769792 0,512 C0,229.230208 229.230208,0 512,0 Z" id="background" fill="#FFFFFF"></path>
        <g id="slack-icon" transform="translate(204.800, 204.800)" fill-rule="nonzero">
            <path d="M414.72,203.52 C414.72,158.72 378.24,122.24 333.44,122.24 C288.64,122.24 252.16,158.72 252.16,203.52 L252.16,333.44 L333.44,333.44 C378.24,333.44 414.72,296.96 414.72,252.16 L414.72,203.52 Z" id="Path" fill="#E01E5A"></path>
            <path d="M203.52,203.52 L203.52,333.44 C203.52,378.24 167.04,414.72 122.24,414.72 C77.44,414.72 40.96,378.24 40.96,333.44 L40.96,203.52 C40.96,158.72 77.44,122.24 122.24,122.24 C167.04,122.24 203.52,158.72 203.52,203.52 Z" id="Path" fill="#36C5F0"></path>
            <path d="M203.52,414.72 C248.32,414.72 284.8,378.24 284.8,333.44 C284.8,288.64 248.32,252.16 203.52,252.16 L73.6,252.16 L73.6,333.44 C73.6,378.24 110.08,414.72 154.88,414.72 L203.52,414.72 Z" id="Path" fill="#2EB67D"></path>
            <path d="M414.72,414.72 L414.72,284.8 C414.72,240 378.24,203.52 333.44,203.52 C288.64,203.52 252.16,240 252.16,284.8 L252.16,414.72 C252.16,459.52 288.64,496 333.44,496 C378.24,496 414.72,459.52 414.72,414.72 Z" id="Path" fill="#ECB22E"></path>
        </g>
    </g>
</svg>
